<svg t="1568683831119" class="icon" viewBox="0 0 1024 1024" version="1.1" xmlns="http://www.w3.org/2000/svg" p-id="5980" width="200" height="200"><path d="M832.5 959h-641C121.1 959 64 901.9 64 831.5v-512C64 249.1 121.1 192 191.5 192h641c70.4 0 127.5 57.1 127.5 127.5v512c0 70.4-57.1 127.5-127.5 127.5zM896 831.5v-511c0-35.6-28.9-64.5-64.5-64.5h-639c-35.6 0-64.5 28.9-64.5 64.5v511c0 35.6 28.9 64.5 64.5 64.5h639c35.6 0 64.5-28.9 64.5-64.5z" p-id="5981"></path><path d="M352 384c-17.7 0-32-14.3-32-32V96c0-17.7 14.3-32 32-32s32 14.3 32 32v256c0 17.7-14.3 32-32 32zM768 543.9v0.1c0 17.6-14.3 31.9-31.9 31.9H287.9c-17.6 0-31.9-14.3-31.9-31.9v-0.1c0-17.6 14.3-31.9 31.9-31.9H736c17.7 0 32 14.3 32 31.9zM768 735.9v0.1c0 17.6-14.3 31.9-31.9 31.9H287.9c-17.6 0-31.9-14.3-31.9-31.9v-0.1c0-17.6 14.3-31.9 31.9-31.9H736c17.7 0 32 14.3 32 31.9zM672 384c-17.7 0-32-14.3-32-32V96c0-17.7 14.3-32 32-32s32 14.3 32 32v256c0 17.7-14.3 32-32 32z" p-id="5982"></path></svg>